<mxfile host="app.diagrams.net" modified="2021-11-03T20:26:35.123Z" agent="5.0 (Windows NT 10.0; Win64; x64) AppleWebKit/537.36 (KHTML, like Gecko) Chrome/95.0.4638.69 Safari/537.36" etag="61fhUPYS-BhMRIwAaGGR" version="15.6.8" type="github">
  <diagram id="xFY2t82S8DsJu-r_vhXZ" name="Page-1">
    <mxGraphModel dx="2871" dy="1443" grid="0" gridSize="10" guides="1" tooltips="1" connect="1" arrows="1" fold="1" page="0" pageScale="1" pageWidth="827" pageHeight="1169" math="0" shadow="0">
      <root>
        <mxCell id="0" />
        <mxCell id="1" parent="0" />
        <mxCell id="AnClEVBY6hW8CLuT7jzg-3" value="" style="edgeStyle=none;curved=1;rounded=0;sketch=1;hachureGap=4;orthogonalLoop=1;jettySize=auto;html=1;fontFamily=Architects Daughter;fontSource=https%3A%2F%2Ffonts.googleapis.com%2Fcss%3Ffamily%3DArchitects%2BDaughter;fontSize=16;endArrow=open;startSize=14;endSize=14;sourcePerimeterSpacing=8;targetPerimeterSpacing=8;" edge="1" parent="1" source="AnClEVBY6hW8CLuT7jzg-1" target="AnClEVBY6hW8CLuT7jzg-2">
          <mxGeometry relative="1" as="geometry" />
        </mxCell>
        <mxCell id="AnClEVBY6hW8CLuT7jzg-1" value="Başla" style="ellipse;whiteSpace=wrap;html=1;sketch=1;hachureGap=4;pointerEvents=0;fontFamily=Architects Daughter;fontSource=https%3A%2F%2Ffonts.googleapis.com%2Fcss%3Ffamily%3DArchitects%2BDaughter;fontSize=20;" vertex="1" parent="1">
          <mxGeometry x="-646" y="-437" width="120" height="80" as="geometry" />
        </mxCell>
        <mxCell id="AnClEVBY6hW8CLuT7jzg-5" value="" style="edgeStyle=none;curved=1;rounded=0;sketch=1;hachureGap=4;orthogonalLoop=1;jettySize=auto;html=1;fontFamily=Architects Daughter;fontSource=https%3A%2F%2Ffonts.googleapis.com%2Fcss%3Ffamily%3DArchitects%2BDaughter;fontSize=16;endArrow=open;startSize=14;endSize=14;sourcePerimeterSpacing=8;targetPerimeterSpacing=8;" edge="1" parent="1" source="AnClEVBY6hW8CLuT7jzg-2" target="AnClEVBY6hW8CLuT7jzg-4">
          <mxGeometry relative="1" as="geometry" />
        </mxCell>
        <mxCell id="AnClEVBY6hW8CLuT7jzg-2" value="1.Sayı, 2.Sayı, 3.Sayı" style="shape=parallelogram;perimeter=parallelogramPerimeter;whiteSpace=wrap;html=1;fixedSize=1;sketch=1;hachureGap=4;pointerEvents=0;fontFamily=Architects Daughter;fontSource=https%3A%2F%2Ffonts.googleapis.com%2Fcss%3Ffamily%3DArchitects%2BDaughter;fontSize=20;" vertex="1" parent="1">
          <mxGeometry x="-401.5" y="-437" width="150" height="82" as="geometry" />
        </mxCell>
        <mxCell id="AnClEVBY6hW8CLuT7jzg-18" value="Hayır" style="edgeStyle=none;curved=1;rounded=0;sketch=1;hachureGap=4;orthogonalLoop=1;jettySize=auto;html=1;fontFamily=Architects Daughter;fontSource=https%3A%2F%2Ffonts.googleapis.com%2Fcss%3Ffamily%3DArchitects%2BDaughter;fontSize=16;endArrow=open;startSize=14;endSize=14;sourcePerimeterSpacing=8;targetPerimeterSpacing=8;" edge="1" parent="1" source="AnClEVBY6hW8CLuT7jzg-4" target="AnClEVBY6hW8CLuT7jzg-17">
          <mxGeometry x="-0.1481" y="-20" relative="1" as="geometry">
            <mxPoint as="offset" />
          </mxGeometry>
        </mxCell>
        <mxCell id="AnClEVBY6hW8CLuT7jzg-39" value="Evet" style="edgeStyle=none;curved=1;rounded=0;sketch=1;hachureGap=4;orthogonalLoop=1;jettySize=auto;html=1;fontFamily=Architects Daughter;fontSource=https%3A%2F%2Ffonts.googleapis.com%2Fcss%3Ffamily%3DArchitects%2BDaughter;fontSize=16;endArrow=open;startSize=14;endSize=14;sourcePerimeterSpacing=8;targetPerimeterSpacing=8;" edge="1" parent="1" source="AnClEVBY6hW8CLuT7jzg-4" target="AnClEVBY6hW8CLuT7jzg-38">
          <mxGeometry x="-0.147" y="27" relative="1" as="geometry">
            <mxPoint as="offset" />
          </mxGeometry>
        </mxCell>
        <mxCell id="AnClEVBY6hW8CLuT7jzg-4" value="1. Sayı &amp;gt; 2. Sayı" style="rhombus;whiteSpace=wrap;html=1;sketch=1;hachureGap=4;pointerEvents=0;fontFamily=Architects Daughter;fontSource=https%3A%2F%2Ffonts.googleapis.com%2Fcss%3Ffamily%3DArchitects%2BDaughter;fontSize=20;" vertex="1" parent="1">
          <mxGeometry x="-420" y="-300" width="199" height="115" as="geometry" />
        </mxCell>
        <mxCell id="AnClEVBY6hW8CLuT7jzg-50" value="" style="edgeStyle=none;curved=1;rounded=0;sketch=1;hachureGap=4;orthogonalLoop=1;jettySize=auto;html=1;fontFamily=Architects Daughter;fontSource=https%3A%2F%2Ffonts.googleapis.com%2Fcss%3Ffamily%3DArchitects%2BDaughter;fontSize=16;endArrow=open;startSize=14;endSize=14;sourcePerimeterSpacing=8;targetPerimeterSpacing=8;" edge="1" parent="1" source="AnClEVBY6hW8CLuT7jzg-10" target="AnClEVBY6hW8CLuT7jzg-34">
          <mxGeometry relative="1" as="geometry" />
        </mxCell>
        <mxCell id="AnClEVBY6hW8CLuT7jzg-10" value="1. Sayı en büyüktür." style="shape=document;whiteSpace=wrap;html=1;boundedLbl=1;sketch=1;hachureGap=4;pointerEvents=0;fontFamily=Architects Daughter;fontSource=https%3A%2F%2Ffonts.googleapis.com%2Fcss%3Ffamily%3DArchitects%2BDaughter;fontSize=20;" vertex="1" parent="1">
          <mxGeometry x="-389" y="35" width="120" height="80" as="geometry" />
        </mxCell>
        <mxCell id="AnClEVBY6hW8CLuT7jzg-20" value="Evet" style="edgeStyle=none;curved=1;rounded=0;sketch=1;hachureGap=4;orthogonalLoop=1;jettySize=auto;html=1;fontFamily=Architects Daughter;fontSource=https%3A%2F%2Ffonts.googleapis.com%2Fcss%3Ffamily%3DArchitects%2BDaughter;fontSize=16;endArrow=open;startSize=14;endSize=14;sourcePerimeterSpacing=8;targetPerimeterSpacing=8;" edge="1" parent="1" source="AnClEVBY6hW8CLuT7jzg-17" target="AnClEVBY6hW8CLuT7jzg-19">
          <mxGeometry x="0.0095" y="-35" relative="1" as="geometry">
            <mxPoint y="-1" as="offset" />
          </mxGeometry>
        </mxCell>
        <mxCell id="AnClEVBY6hW8CLuT7jzg-32" value="Hayır" style="edgeStyle=none;curved=1;rounded=0;sketch=1;hachureGap=4;orthogonalLoop=1;jettySize=auto;html=1;fontFamily=Architects Daughter;fontSource=https%3A%2F%2Ffonts.googleapis.com%2Fcss%3Ffamily%3DArchitects%2BDaughter;fontSize=16;endArrow=open;startSize=14;endSize=14;sourcePerimeterSpacing=8;targetPerimeterSpacing=8;" edge="1" parent="1" source="AnClEVBY6hW8CLuT7jzg-17" target="AnClEVBY6hW8CLuT7jzg-30">
          <mxGeometry x="-0.1236" y="32" relative="1" as="geometry">
            <mxPoint y="-1" as="offset" />
          </mxGeometry>
        </mxCell>
        <mxCell id="AnClEVBY6hW8CLuT7jzg-17" value="3. Sayı &amp;gt; 2. Sayı" style="rhombus;whiteSpace=wrap;html=1;sketch=1;hachureGap=4;pointerEvents=0;fontFamily=Architects Daughter;fontSource=https%3A%2F%2Ffonts.googleapis.com%2Fcss%3Ffamily%3DArchitects%2BDaughter;fontSize=20;" vertex="1" parent="1">
          <mxGeometry x="-663" y="-295.5" width="199" height="115" as="geometry" />
        </mxCell>
        <mxCell id="AnClEVBY6hW8CLuT7jzg-49" value="" style="edgeStyle=none;curved=1;rounded=0;sketch=1;hachureGap=4;orthogonalLoop=1;jettySize=auto;html=1;fontFamily=Architects Daughter;fontSource=https%3A%2F%2Ffonts.googleapis.com%2Fcss%3Ffamily%3DArchitects%2BDaughter;fontSize=16;endArrow=open;startSize=14;endSize=14;sourcePerimeterSpacing=8;targetPerimeterSpacing=8;" edge="1" parent="1" source="AnClEVBY6hW8CLuT7jzg-19" target="AnClEVBY6hW8CLuT7jzg-34">
          <mxGeometry relative="1" as="geometry" />
        </mxCell>
        <mxCell id="AnClEVBY6hW8CLuT7jzg-19" value="3. Sayı en büyüktür." style="shape=document;whiteSpace=wrap;html=1;boundedLbl=1;sketch=1;hachureGap=4;pointerEvents=0;fontFamily=Architects Daughter;fontSource=https%3A%2F%2Ffonts.googleapis.com%2Fcss%3Ffamily%3DArchitects%2BDaughter;fontSize=20;" vertex="1" parent="1">
          <mxGeometry x="-640.5" y="-112" width="120" height="80" as="geometry" />
        </mxCell>
        <mxCell id="AnClEVBY6hW8CLuT7jzg-46" value="" style="edgeStyle=none;curved=1;rounded=0;sketch=1;hachureGap=4;orthogonalLoop=1;jettySize=auto;html=1;fontFamily=Architects Daughter;fontSource=https%3A%2F%2Ffonts.googleapis.com%2Fcss%3Ffamily%3DArchitects%2BDaughter;fontSize=16;endArrow=open;startSize=14;endSize=14;sourcePerimeterSpacing=8;targetPerimeterSpacing=8;" edge="1" parent="1" source="AnClEVBY6hW8CLuT7jzg-30" target="AnClEVBY6hW8CLuT7jzg-34">
          <mxGeometry relative="1" as="geometry" />
        </mxCell>
        <mxCell id="AnClEVBY6hW8CLuT7jzg-30" value="2. Sayı en büyüktür." style="shape=document;whiteSpace=wrap;html=1;boundedLbl=1;sketch=1;hachureGap=4;pointerEvents=0;fontFamily=Architects Daughter;fontSource=https%3A%2F%2Ffonts.googleapis.com%2Fcss%3Ffamily%3DArchitects%2BDaughter;fontSize=20;" vertex="1" parent="1">
          <mxGeometry x="-834" y="-209.5" width="120" height="80" as="geometry" />
        </mxCell>
        <mxCell id="AnClEVBY6hW8CLuT7jzg-34" value="Bitir." style="ellipse;whiteSpace=wrap;html=1;sketch=1;hachureGap=4;pointerEvents=0;fontFamily=Architects Daughter;fontSource=https%3A%2F%2Ffonts.googleapis.com%2Fcss%3Ffamily%3DArchitects%2BDaughter;fontSize=20;" vertex="1" parent="1">
          <mxGeometry x="-723" y="42" width="120" height="60" as="geometry" />
        </mxCell>
        <mxCell id="AnClEVBY6hW8CLuT7jzg-40" value="Evet" style="edgeStyle=none;curved=1;rounded=0;sketch=1;hachureGap=4;orthogonalLoop=1;jettySize=auto;html=1;fontFamily=Architects Daughter;fontSource=https%3A%2F%2Ffonts.googleapis.com%2Fcss%3Ffamily%3DArchitects%2BDaughter;fontSize=16;endArrow=open;startSize=14;endSize=14;sourcePerimeterSpacing=8;targetPerimeterSpacing=8;" edge="1" parent="1" source="AnClEVBY6hW8CLuT7jzg-38" target="AnClEVBY6hW8CLuT7jzg-10">
          <mxGeometry x="-0.2" y="28" relative="1" as="geometry">
            <mxPoint as="offset" />
          </mxGeometry>
        </mxCell>
        <mxCell id="AnClEVBY6hW8CLuT7jzg-43" value="" style="edgeStyle=none;curved=1;rounded=0;sketch=1;hachureGap=4;orthogonalLoop=1;jettySize=auto;html=1;fontFamily=Architects Daughter;fontSource=https%3A%2F%2Ffonts.googleapis.com%2Fcss%3Ffamily%3DArchitects%2BDaughter;fontSize=16;endArrow=open;startSize=14;endSize=14;sourcePerimeterSpacing=8;targetPerimeterSpacing=8;entryX=1;entryY=0.5;entryDx=0;entryDy=0;" edge="1" parent="1" source="AnClEVBY6hW8CLuT7jzg-38" target="AnClEVBY6hW8CLuT7jzg-19">
          <mxGeometry relative="1" as="geometry">
            <mxPoint x="-494" y="-52.01061571125274" as="targetPoint" />
          </mxGeometry>
        </mxCell>
        <mxCell id="AnClEVBY6hW8CLuT7jzg-38" value="1. Sayı &amp;gt; 3. Sayı" style="rhombus;whiteSpace=wrap;html=1;sketch=1;hachureGap=4;pointerEvents=0;fontFamily=Architects Daughter;fontSource=https%3A%2F%2Ffonts.googleapis.com%2Fcss%3Ffamily%3DArchitects%2BDaughter;fontSize=20;" vertex="1" parent="1">
          <mxGeometry x="-426" y="-129.5" width="199" height="115" as="geometry" />
        </mxCell>
      </root>
    </mxGraphModel>
  </diagram>
</mxfile>
